<svg width="88" xmlns="http://www.w3.org/2000/svg" height="75.546" id="screenshot-06163bbb-966d-8077-8006-4f2a00eaccac" viewBox="0 0 88 75.546" xmlns:xlink="http://www.w3.org/1999/xlink" fill="none" version="1.1"><g id="shape-06163bbb-966d-8077-8006-4f2a00eaccac"><g class="frame-container-wrapper"><g class="frame-container-blur"><g class="frame-container-shadows"><g fill="none"><g class="fills" id="fills-06163bbb-966d-8077-8006-4f2a00eaccac"><rect rx="0" ry="0" x="0" y="0" width="88.00000000000017" height="75.54624463257059" transform="matrix(1.000000, 0.000000, 0.000000, 1.000000, 0.000000, 0.000000)" class="frame-background"/></g><g class="frame-children"><g id="shape-dadbbd93-c45b-8058-8006-268c2a8d0e93"><g class="fills" id="fills-dadbbd93-c45b-8058-8006-268c2a8d0e93"><path d="M30.828,13.219C30.828,13.219,35.535,16.635,31.684,19.625C27.726,22.696,26.976,25.604,27.618,27.525C28.828,31.149,31.684,30.728,32.539,32.010C33.395,33.291,41.364,38.150,34.251,45.249C32.539,46.957,29.544,45.035,27.832,45.035C25.692,45.035,23.892,45.068,22.697,43.967C21.025,42.428,20.985,39.270,19.487,38.202C17.989,37.134,15.556,37.669,14.351,36.707C13.925,36.367,13.094,34.561,12.640,33.504C11.854,31.936,11.068,31.980,9.774,30.592C9.306,30.090,8.771,29.400,8.146,28.380M32.539,32.010C32.539,32.010,31.684,29.020,32.967,26.458M9.774,30.592C9.774,30.592,5.364,32.437,1.941,28.380C-1.483,24.322,1.299,20.692,4.081,19.625C4.081,19.625,4.936,19.411,4.893,18.463C4.776,15.946,3.653,10.870,11.998,10.229C11.998,10.229,15.421,1.475,22.911,7.240C22.911,7.240,21.705,9.677,21.841,11.938C21.953,13.810,22.911,15.995,23.124,17.916C23.546,21.700,19.962,25.931,20.985,29.661C21.271,30.705,22.073,32.721,23.552,34.145C24.877,35.420,27.463,36.174,28.902,37.134C30.752,38.369,31.328,39.668,31.470,39.910M4.893,18.463C5.792,20.052,6.220,20.692,7.290,21.333M20.985,29.661C20.985,29.661,20.174,28.603,18.203,28.166C16.277,27.739,14.678,27.085,13.924,26.031C13.121,24.910,13.128,24.498,13.924,21.333C19.701,16.849,16.705,13.432,16.705,13.432M13.924,21.333C13.924,21.333,13.924,18.557,11.570,16.635M22.911,7.240C22.911,7.240,30.400,2.329,37.033,8.735C43.666,15.141,39.173,20.692,39.815,23.682C40.101,25.013,40.980,26.217,41.642,28.256C42.234,30.081,42.651,32.576,42.310,36.429C42.177,37.937,41.927,39.653,41.526,41.618C41.526,41.618,42.124,48.413,39.540,52.178C39.117,52.794,38.609,53.329,37.999,53.740C36.236,54.928,33.622,55.077,29.758,53.149C29.012,52.777,28.386,52.608,27.739,52.500C26.907,52.360,26.040,52.322,24.836,52.082C22.577,51.631,23.124,50.160,19.487,49.306C18.365,49.042,14.351,49.306,11.570,48.665C10.095,48.325,2.049,45.663,3.011,37.988C3.042,37.735,3.183,37.557,3.399,37.440C4.641,36.769,8.392,38.115,8.574,38.843C9.723,43.428,12.162,45.702,15.421,43.967M3.399,37.440C3.399,37.440,0.266,36.151,0.015,32.650C-0.199,29.661,1.941,28.380,1.941,28.380M27.739,52.500C29.116,52.082,29.985,51.955,30.828,51.227M37.999,53.740C37.999,53.740,36.819,64.893,22.911,55.712C21.073,54.499,17.347,56.139,13.924,53.790C9.373,50.668,11.570,48.665,11.570,48.665M13.924,53.790C13.924,53.790,41.914,68.096,40.500,73.046C40.047,74.632,38.422,75.546,37.500,75.546C35.500,75.546,36.272,73.774,37.000,73.046C40.000,70.046,40.519,70.033,45.000,67.046C48.000,65.046,56.500,60.046,59.500,58.546C59.500,58.546,77.500,51.546,74.000,42.546C74.000,42.546,66.500,36.546,70.315,32.861C70.500,32.546,73.000,31.046,73.000,31.046M41.642,28.256L41.000,29.046C41.000,29.046,37.500,32.546,38.000,37.046C38.500,41.546,39.540,52.178,39.540,52.178C39.540,52.178,40.500,59.546,45.000,61.046C49.500,62.546,59.500,58.546,59.500,58.546M47.000,53.546C50.129,51.808,54.708,48.619,58.553,45.157C60.238,43.640,61.781,42.070,63.000,40.546C63.529,39.863,63.722,39.672,64.000,39.046C64.609,37.675,65.434,36.565,66.285,35.685C68.229,33.676,70.315,32.861,70.315,32.861M63.000,40.546C63.000,40.546,60.500,41.546,58.000,42.046C57.400,42.166,56.784,42.315,56.160,42.509C54.660,42.976,53.109,43.708,51.583,44.948C50.358,45.944,49.150,47.268,48.000,49.046M56.160,42.509C56.160,42.509,54.000,41.046,52.000,42.046M51.583,44.948C51.583,44.948,49.500,44.046,47.500,45.546M58.553,45.157C58.553,45.157,58.066,48.109,58.226,50.628C58.301,51.815,58.520,52.906,59.000,53.546M58.226,50.628C58.226,50.628,56.500,53.546,54.500,55.546M64.000,39.046C64.000,39.046,64.000,43.546,65.500,45.046C67.000,46.546,67.500,46.546,67.500,46.546M65.500,45.046C65.500,45.046,64.000,48.046,63.000,49.546M66.285,35.685C66.285,35.685,67.000,24.046,78.000,26.046M74.000,42.546C74.000,42.546,82.000,39.546,79.000,28.046C78.874,27.562,83.000,26.546,86.000,28.546C86.000,28.546,88.000,27.546,88.000,25.046C88.000,24.546,86.000,24.046,82.500,24.046C79.500,24.046,83.919,23.627,85.500,22.046C86.000,21.546,85.585,19.275,84.500,19.546C82.500,20.046,81.000,21.546,78.000,20.046C77.000,20.046,72.000,16.546,68.500,17.046C65.000,17.546,62.430,23.926,61.500,24.546C60.000,25.546,57.500,25.546,54.500,25.046C56.000,22.546,56.500,19.046,57.000,16.546C57.369,14.518,63.000,10.046,64.500,8.546C66.500,6.546,67.000,3.546,68.000,0.546C68.399,-0.650,70.784,0.398,71.000,1.046C71.500,2.546,70.000,7.046,70.000,8.046C70.000,9.237,72.000,7.546,72.000,7.546C72.000,7.546,76.000,4.046,76.500,3.546C77.124,2.922,79.000,4.546,78.500,5.546C77.000,8.546,73.933,11.235,74.500,11.046C76.000,10.546,80.500,7.046,81.500,8.046C84.000,10.546,82.500,11.046,82.500,11.046C76.000,12.546,77.000,14.046,77.000,14.046C79.000,18.046,78.000,20.046,78.000,20.046M56.000,34.046C56.828,32.804,56.713,31.048,56.294,29.416C55.702,27.106,54.500,25.046,54.500,25.046C52.438,25.734,51.025,26.067,49.958,26.228C47.920,26.536,47.141,26.218,45.500,26.546C42.782,27.090,41.642,28.256,41.642,28.256L42.500,23.546C45.500,11.546,60.500,8.046,60.500,8.046C61.703,7.745,60.786,5.789,59.500,4.046C58.648,2.892,57.301,1.745,57.500,1.546C64.500,-3.454,64.500,8.546,64.500,8.546M49.958,26.228C49.958,26.228,48.740,27.864,48.338,30.090C48.016,31.876,48.219,34.042,50.000,36.046M48.338,30.090C48.338,30.090,47.000,33.046,45.500,34.046C45.500,34.046,45.000,38.546,45.000,40.046M45.500,34.046C45.500,34.046,44.000,34.546,44.000,34.546C42.000,35.546,42.310,36.429,42.310,36.429M56.294,29.416C56.294,29.416,58.500,31.046,60.000,31.046"/></g><g id="strokes-550eac31-6851-8045-8006-597e5f92477c-dadbbd93-c45b-8058-8006-268c2a8d0e93" class="strokes"><g class="stroke-shape"><path d="M30.828,13.219C30.828,13.219,35.535,16.635,31.684,19.625C27.726,22.696,26.976,25.604,27.618,27.525C28.828,31.149,31.684,30.728,32.539,32.010C33.395,33.291,41.364,38.150,34.251,45.249C32.539,46.957,29.544,45.035,27.832,45.035C25.692,45.035,23.892,45.068,22.697,43.967C21.025,42.428,20.985,39.270,19.487,38.202C17.989,37.134,15.556,37.669,14.351,36.707C13.925,36.367,13.094,34.561,12.640,33.504C11.854,31.936,11.068,31.980,9.774,30.592C9.306,30.090,8.771,29.400,8.146,28.380M32.539,32.010C32.539,32.010,31.684,29.020,32.967,26.458M9.774,30.592C9.774,30.592,5.364,32.437,1.941,28.380C-1.483,24.322,1.299,20.692,4.081,19.625C4.081,19.625,4.936,19.411,4.893,18.463C4.776,15.946,3.653,10.870,11.998,10.229C11.998,10.229,15.421,1.475,22.911,7.240C22.911,7.240,21.705,9.677,21.841,11.938C21.953,13.810,22.911,15.995,23.124,17.916C23.546,21.700,19.962,25.931,20.985,29.661C21.271,30.705,22.073,32.721,23.552,34.145C24.877,35.420,27.463,36.174,28.902,37.134C30.752,38.369,31.328,39.668,31.470,39.910M4.893,18.463C5.792,20.052,6.220,20.692,7.290,21.333M20.985,29.661C20.985,29.661,20.174,28.603,18.203,28.166C16.277,27.739,14.678,27.085,13.924,26.031C13.121,24.910,13.128,24.498,13.924,21.333C19.701,16.849,16.705,13.432,16.705,13.432M13.924,21.333C13.924,21.333,13.924,18.557,11.570,16.635M22.911,7.240C22.911,7.240,30.400,2.329,37.033,8.735C43.666,15.141,39.173,20.692,39.815,23.682C40.101,25.013,40.980,26.217,41.642,28.256C42.234,30.081,42.651,32.576,42.310,36.429C42.177,37.937,41.927,39.653,41.526,41.618C41.526,41.618,42.124,48.413,39.540,52.178C39.117,52.794,38.609,53.329,37.999,53.740C36.236,54.928,33.622,55.077,29.758,53.149C29.012,52.777,28.386,52.608,27.739,52.500C26.907,52.360,26.040,52.322,24.836,52.082C22.577,51.631,23.124,50.160,19.487,49.306C18.365,49.042,14.351,49.306,11.570,48.665C10.095,48.325,2.049,45.663,3.011,37.988C3.042,37.735,3.183,37.557,3.399,37.440C4.641,36.769,8.392,38.115,8.574,38.843C9.723,43.428,12.162,45.702,15.421,43.967M3.399,37.440C3.399,37.440,0.266,36.151,0.015,32.650C-0.199,29.661,1.941,28.380,1.941,28.380M27.739,52.500C29.116,52.082,29.985,51.955,30.828,51.227M37.999,53.740C37.999,53.740,36.819,64.893,22.911,55.712C21.073,54.499,17.347,56.139,13.924,53.790C9.373,50.668,11.570,48.665,11.570,48.665M13.924,53.790C13.924,53.790,41.914,68.096,40.500,73.046C40.047,74.632,38.422,75.546,37.500,75.546C35.500,75.546,36.272,73.774,37.000,73.046C40.000,70.046,40.519,70.033,45.000,67.046C48.000,65.046,56.500,60.046,59.500,58.546C59.500,58.546,77.500,51.546,74.000,42.546C74.000,42.546,66.500,36.546,70.315,32.861C70.500,32.546,73.000,31.046,73.000,31.046M41.642,28.256L41.000,29.046C41.000,29.046,37.500,32.546,38.000,37.046C38.500,41.546,39.540,52.178,39.540,52.178C39.540,52.178,40.500,59.546,45.000,61.046C49.500,62.546,59.500,58.546,59.500,58.546M47.000,53.546C50.129,51.808,54.708,48.619,58.553,45.157C60.238,43.640,61.781,42.070,63.000,40.546C63.529,39.863,63.722,39.672,64.000,39.046C64.609,37.675,65.434,36.565,66.285,35.685C68.229,33.676,70.315,32.861,70.315,32.861M63.000,40.546C63.000,40.546,60.500,41.546,58.000,42.046C57.400,42.166,56.784,42.315,56.160,42.509C54.660,42.976,53.109,43.708,51.583,44.948C50.358,45.944,49.150,47.268,48.000,49.046M56.160,42.509C56.160,42.509,54.000,41.046,52.000,42.046M51.583,44.948C51.583,44.948,49.500,44.046,47.500,45.546M58.553,45.157C58.553,45.157,58.066,48.109,58.226,50.628C58.301,51.815,58.520,52.906,59.000,53.546M58.226,50.628C58.226,50.628,56.500,53.546,54.500,55.546M64.000,39.046C64.000,39.046,64.000,43.546,65.500,45.046C67.000,46.546,67.500,46.546,67.500,46.546M65.500,45.046C65.500,45.046,64.000,48.046,63.000,49.546M66.285,35.685C66.285,35.685,67.000,24.046,78.000,26.046M74.000,42.546C74.000,42.546,82.000,39.546,79.000,28.046C78.874,27.562,83.000,26.546,86.000,28.546C86.000,28.546,88.000,27.546,88.000,25.046C88.000,24.546,86.000,24.046,82.500,24.046C79.500,24.046,83.919,23.627,85.500,22.046C86.000,21.546,85.585,19.275,84.500,19.546C82.500,20.046,81.000,21.546,78.000,20.046C77.000,20.046,72.000,16.546,68.500,17.046C65.000,17.546,62.430,23.926,61.500,24.546C60.000,25.546,57.500,25.546,54.500,25.046C56.000,22.546,56.500,19.046,57.000,16.546C57.369,14.518,63.000,10.046,64.500,8.546C66.500,6.546,67.000,3.546,68.000,0.546C68.399,-0.650,70.784,0.398,71.000,1.046C71.500,2.546,70.000,7.046,70.000,8.046C70.000,9.237,72.000,7.546,72.000,7.546C72.000,7.546,76.000,4.046,76.500,3.546C77.124,2.922,79.000,4.546,78.500,5.546C77.000,8.546,73.933,11.235,74.500,11.046C76.000,10.546,80.500,7.046,81.500,8.046C84.000,10.546,82.500,11.046,82.500,11.046C76.000,12.546,77.000,14.046,77.000,14.046C79.000,18.046,78.000,20.046,78.000,20.046M56.000,34.046C56.828,32.804,56.713,31.048,56.294,29.416C55.702,27.106,54.500,25.046,54.500,25.046C52.438,25.734,51.025,26.067,49.958,26.228C47.920,26.536,47.141,26.218,45.500,26.546C42.782,27.090,41.642,28.256,41.642,28.256L42.500,23.546C45.500,11.546,60.500,8.046,60.500,8.046C61.703,7.745,60.786,5.789,59.500,4.046C58.648,2.892,57.301,1.745,57.500,1.546C64.500,-3.454,64.500,8.546,64.500,8.546M49.958,26.228C49.958,26.228,48.740,27.864,48.338,30.090C48.016,31.876,48.219,34.042,50.000,36.046M48.338,30.090C48.338,30.090,47.000,33.046,45.500,34.046C45.500,34.046,45.000,38.546,45.000,40.046M45.500,34.046C45.500,34.046,44.000,34.546,44.000,34.546C42.000,35.546,42.310,36.429,42.310,36.429M56.294,29.416C56.294,29.416,58.500,31.046,60.000,31.046" style="fill: none; stroke-width: 1; stroke: rgb(0, 46, 44); stroke-opacity: 1; stroke-linecap: round;"/></g></g></g></g></g></g></g></g></g></svg>